<?xml version="1.0" standalone="no"?>
<!DOCTYPE svg PUBLIC "-//W3C//DTD SVG 20010904//EN"
 "http://www.w3.org/TR/2001/REC-SVG-20010904/DTD/svg10.dtd">
<svg version="1.0" xmlns="http://www.w3.org/2000/svg"
 width="591.000000pt" height="591.000000pt" viewBox="0 0 591.000000 591.000000"
 preserveAspectRatio="xMidYMid meet">
<metadata>
Created by potrace 1.11, written by Peter Selinger 2001-2013
</metadata>
<g transform="translate(0.000000,591.000000) scale(0.100000,-0.100000)"
fill="#000000" stroke="none">
<path d="M5543 3709 c-84 -16 -131 -55 -157 -132 -12 -36 -16 -88 -16 -212 l0
-164 -27 -3 c-28 -3 -28 -4 -28 -73 0 -69 0 -70 28 -73 l27 -3 0 -265 0 -264
80 0 79 0 0 228 c0 125 0 244 1 265 0 23 5 37 13 37 6 0 46 33 87 73 l74 72
-87 3 c-74 2 -87 5 -88 20 -4 126 3 289 14 311 15 32 67 40 121 17 l37 -15 -3
81 c-3 81 -3 82 -33 90 -51 13 -78 15 -122 7z"/>
<path d="M1105 3430 l-70 -70 -1 -410 0 -410 38 -1 c21 -1 49 -1 63 -1 14 0
32 0 40 1 13 1 15 61 15 481 -1 264 -4 480 -8 480 -4 0 -38 -32 -77 -70z"/>
<path d="M479 3217 c-103 -29 -190 -104 -238 -206 -22 -48 -26 -69 -26 -151 0
-83 3 -102 28 -151 79 -162 256 -246 426 -202 30 8 64 21 77 29 13 8 35 21 49
29 l26 16 -48 54 c-41 46 -50 52 -63 41 -30 -26 -95 -44 -147 -40 -199 12
-287 255 -142 392 65 61 166 78 253 43 l30 -12 -98 -98 c-110 -111 -107 -91
-28 -165 l32 -29 144 144 145 145 -42 45 c-99 108 -245 152 -378 116z"/>
<path d="M3210 3215 c-258 -73 -352 -400 -171 -598 112 -124 296 -156 447 -79
69 35 72 45 25 94 -22 24 -41 46 -41 50 0 4 -21 -5 -47 -20 -58 -32 -147 -36
-205 -8 -140 67 -176 244 -75 363 33 39 114 73 172 73 53 0 121 -26 144 -53
19 -24 28 -22 83 24 l49 42 -28 29 c-15 16 -55 43 -89 59 -76 38 -180 47 -264
24z"/>
<path d="M1635 3207 c-17 -6 -47 -23 -67 -39 l-37 -29 2 28 2 28 -77 1 -78 0
0 -328 0 -328 23 -1 c104 -4 127 -3 128 6 1 6 2 102 3 215 2 191 4 209 25 253
18 37 30 48 57 56 18 5 39 8 46 7 85 -15 92 -36 96 -306 2 -124 5 -226 6 -228
2 -1 35 -3 74 -5 59 -2 72 0 73 13 0 8 2 107 3 220 3 231 12 266 72 295 39 18
55 19 89 3 49 -22 57 -62 60 -298 2 -118 3 -218 4 -223 1 -4 35 25 77 65 l76
73 -4 180 c-3 162 -6 185 -27 232 -42 96 -135 134 -265 109 -34 -6 -102 -51
-110 -73 -5 -12 -15 -7 -47 21 -22 20 -52 41 -67 47 -38 14 -102 17 -137 6z"/>
<path d="M3967 3209 c-98 -22 -208 -112 -249 -206 -11 -26 -23 -75 -26 -109
-12 -155 67 -293 207 -361 48 -23 69 -27 151 -27 88 -1 101 2 162 32 129 63
201 178 200 322 0 156 -90 284 -234 336 -50 18 -157 24 -211 13z m143 -144
c104 -22 164 -144 135 -275 -20 -92 -103 -151 -204 -145 -112 6 -173 67 -187
187 -8 71 9 130 52 178 52 58 115 75 204 55z"/>
<path d="M4852 3205 c-23 -7 -58 -25 -77 -40 l-35 -26 0 31 0 31 -77 -3 -78
-3 -3 -337 -2 -338 80 0 80 0 0 208 c1 231 12 288 62 325 37 28 119 28 156 0
44 -32 50 -70 51 -303 1 -117 4 -216 6 -218 2 -2 37 29 79 69 l74 74 -2 175
c-2 113 -7 190 -16 218 -15 49 -62 101 -112 125 -47 22 -134 28 -186 12z"/>
<path d="M2545 2930 c-14 -5 -101 -85 -137 -126 -16 -19 -13 -19 157 -19 l174
1 74 72 c61 58 71 72 53 73 -116 3 -310 3 -321 -1z"/>
</g>
</svg>
