<?xml version="1.0" standalone="no"?>
<!DOCTYPE svg PUBLIC "-//W3C//DTD SVG 20010904//EN"
 "http://www.w3.org/TR/2001/REC-SVG-20010904/DTD/svg10.dtd">
<svg version="1.0" xmlns="http://www.w3.org/2000/svg"
 width="498.000000pt" height="498.000000pt" viewBox="0 0 498.000000 498.000000"
 preserveAspectRatio="xMidYMid meet">
<metadata>
Created by potrace 1.11, written by Peter Selinger 2001-2013
</metadata>
<g transform="translate(0.000000,498.000000) scale(0.100000,-0.100000)"
fill="#000000" stroke="none">
<path d="M675 4440 l540 -540 1180 0 1180 0 -540 540 -540 540 -1180 0 -1180
0 540 -540z"/>
<path d="M3875 3880 c605 -605 1101 -1100 1102 -1100 2 0 3 495 3 1100 l0
1100 -1102 0 -1103 0 1100 -1100z"/>
<path d="M0 2483 l0 -2358 1180 1180 1180 1180 -1177 1177 c-648 648 -1179
1178 -1180 1178 -2 0 -3 -1061 -3 -2357z"/>
<path d="M1950 3165 c294 -294 539 -535 545 -535 6 0 251 241 545 535 l535
535 -1080 0 -1080 0 535 -535z"/>
<path d="M3222 3077 c-320 -320 -582 -587 -582 -592 0 -6 262 -272 583 -593
l582 -582 590 590 590 590 -585 585 c-322 322 -587 585 -590 585 -3 0 -267
-262 -588 -583z"/>
<path d="M1320 1175 l-1175 -1175 2350 0 2350 0 -1175 1175 c-646 646 -1175
1175 -1175 1175 0 0 -529 -529 -1175 -1175z"/>
<path d="M4460 1685 l-515 -515 518 -518 517 -517 0 1033 c0 567 -1 1032 -3
1032 -1 0 -234 -232 -517 -515z"/>
</g>
</svg>
